# xmcd
#
# Track frame offsets:
#	150
#	15970
#	32199
#	46793
#	62754
#	80863
#	98022
#	113559
#	128952
#	140294
#	157642
#	172000
#	186066
#	200986
#	216442
#
# Disc length: 3107 seconds
#
# Revision: 0
# Processed by: cddbd v1.5.2PL0 Copyright (c) Steve Scherf et al.
# Submitted via: EasyCDDAExtractor 2010.6.0.0
#
DISCID=ca0c210f
DTITLE=Soleny - Se Você Ama Perdoa (Ao Vivo)
DYEAR=2010
DGENRE=Sertanejo
TTITLE0=Paixão Desenfreada - Part. Nilton Lamas
TTITLE1=Se Você Ama Perdoa
TTITLE2=O Cara Errado
TTITLE3=Página De Amigos
TTITLE4=Amor De Violeiro
TTITLE5=Eu E A Lua
TTITLE6=A Fila Anda
TTITLE7=Nunca Amei Assim
TTITLE8=Mensagem Pra Ela
TTITLE9=Me Apaixonei
TTITLE10=Laço Aberto
TTITLE11=Estava Escrito
TTITLE12=Samambaia
TTITLE13=Ilusão
TTITLE14=Assim Não Dá
EXTD=
EXTT0=
EXTT1=
EXTT2=
EXTT3=
EXTT4=
EXTT5=
EXTT6=
EXTT7=
EXTT8=
EXTT9=
EXTT10=
EXTT11=
EXTT12=
EXTT13=
EXTT14=
PLAYORDER=
